# Blender v2.80 (sub 75) OBJ File: 'brick.blend'
# www.blender.org
mtllib brick.mtl
o Cube
v 2.064613 1.032307 -2.404687
v 2.064613 1.202344 -2.064613
v 2.404687 1.032307 -2.064613
v 2.064613 -1.202344 -2.064613
v 2.064613 -1.032307 -2.404687
v 2.404687 -1.032307 -2.064613
v 2.404687 1.032307 2.064613
v 2.064613 1.202344 2.064613
v 2.064613 1.032307 2.404687
v 2.404687 -1.032307 2.064613
v 2.064613 -1.032307 2.404687
v 2.064613 -1.202344 2.064613
v -2.064613 1.032307 -2.404687
v -2.404687 1.032307 -2.064613
v -2.064613 1.202344 -2.064613
v -2.404687 -1.032307 -2.064613
v -2.064613 -1.032307 -2.404687
v -2.064613 -1.202344 -2.064613
v -2.404687 1.032307 2.064613
v -2.064613 1.032307 2.404687
v -2.064613 1.202344 2.064613
v -2.064613 -1.202344 2.064613
v -2.064613 -1.032307 2.404687
v -2.404687 -1.032307 2.064613
vt 0.976430 0.289398
vt 0.690237 0.289398
vt 0.690237 0.022021
vt 0.976430 0.022021
vt 0.643097 0.289398
vt 0.356904 0.289398
vt 0.356904 0.022021
vt 0.643097 0.022021
vt 0.356904 0.600817
vt 0.356904 0.333439
vt 0.643097 0.333439
vt 0.643097 0.600817
vt 0.309763 0.644858
vt 0.309763 0.912235
vt 0.023570 0.912235
vt 0.023570 0.644858
vt 0.309763 0.289398
vt 0.023570 0.289398
vt 0.023570 0.022021
vt 0.309763 0.022021
vt 0.023570 0.333439
vt 0.000000 0.333439
vt 0.023570 0.311419
vt 0.690237 0.311419
vt 0.666667 0.289398
vt 0.000000 0.022021
vt 0.023570 0.000000
vt 0.309763 0.000000
vt 0.333333 0.022021
vt 0.023570 0.600817
vt 0.023570 0.622837
vt 0.000000 0.600817
vt 0.643097 0.000000
vt 0.666667 0.022021
vt 0.356904 0.311419
vt 0.333333 0.289398
vt 0.976430 0.000000
vt 1.000000 0.022021
vt 1.000000 0.289398
vt 0.976430 0.311419
vt 0.309763 0.333439
vt 0.666667 0.333439
vt 0.666667 0.600817
vt 0.333333 0.600817
vt 0.333333 0.333439
vt 0.309763 0.600817
vt 0.309763 0.622837
vt 0.000000 0.912235
vt 0.000000 0.644858
vt 0.023570 0.622837
vt 0.309763 0.622837
vt 0.690237 0.000000
vt 0.309763 0.934256
vt 0.023570 0.934256
vt 0.333333 0.644858
vt 0.333333 0.912235
vt 0.666667 0.022021
vn 0.0000 -1.0000 0.0000
vn -1.0000 0.0000 0.0000
vn 0.0000 0.0000 1.0000
vn 0.0000 1.0000 0.0000
vn 1.0000 0.0000 0.0000
vn 0.4082 0.8165 -0.4082
vn 0.4082 -0.8165 -0.4082
vn 0.4082 0.8165 0.4082
vn 0.4082 -0.8165 0.4082
vn -0.4082 0.8165 -0.4082
vn -0.4082 -0.8165 -0.4082
vn -0.4082 0.8165 0.4082
vn -0.4082 -0.8165 0.4082
vn -0.4472 -0.8944 0.0000
vn 0.0000 -0.8944 -0.4472
vn 0.7071 0.0000 -0.7071
vn -0.7071 0.0000 0.7071
vn 0.7071 0.0000 0.7071
vn -0.7071 0.0000 -0.7071
vn 0.0000 0.8944 0.4472
vn 0.4472 0.8944 0.0000
vn 0.0000 -0.8944 0.4472
vn -0.4472 0.8944 0.0000
vn 0.0000 0.8944 -0.4472
vn 0.4472 -0.8944 0.0000
vn 0.0000 0.0000 -1.0000
usemtl Material.001
s off
f 18/1/1 4/2/1 12/3/1 22/4/1
f 24/5/2 19/6/2 14/7/2 16/8/2
f 11/9/3 9/10/3 20/11/3 23/12/3
f 2/13/4 15/14/4 21/15/4 8/16/4
f 6/17/5 3/18/5 7/19/5 10/20/5
f 1/21/6 2/22/6 3/23/6
f 4/2/7 5/24/7 6/25/7
f 7/19/8 8/26/8 9/27/8
f 10/20/9 11/28/9 12/29/9
f 13/30/10 14/31/10 15/32/10
f 16/8/11 17/33/11 18/34/11
f 19/6/12 20/35/12 21/36/12
f 22/4/13 23/37/13 24/38/13
f 18/1/14 22/4/14 24/38/14 16/39/14
f 4/2/15 18/1/15 17/40/15 5/24/15
f 3/18/16 6/17/16 5/41/16 1/21/16
f 23/12/17 20/11/17 19/42/17 24/43/17
f 9/10/18 11/9/18 10/44/18 7/45/18
f 13/30/19 17/46/19 16/47/19 14/31/19
f 8/16/20 21/15/20 20/48/20 9/49/20
f 2/13/21 8/16/21 7/50/21 3/51/21
f 22/4/22 12/3/22 11/52/22 23/37/22
f 21/15/23 15/14/23 14/53/23 19/54/23
f 15/14/24 2/13/24 1/55/24 13/56/24
f 12/3/25 4/2/25 6/25/25 10/57/25
f 17/46/26 13/30/26 1/21/26 5/41/26
