# Blender v2.80 (sub 75) OBJ File: 'pad.blend'
# www.blender.org
mtllib pad.mtl
o Cube
v -2.550000 0.000000 3.000000
v -3.000000 0.000000 2.550000
v -3.000000 0.500000 2.550000
v -2.550000 0.500000 3.000000
v -3.000000 0.000000 -2.550000
v -2.550000 0.000000 -3.000000
v -2.550000 0.500000 -3.000000
v -3.000000 0.500000 -2.550000
v 3.000000 0.000000 2.550000
v 2.550000 0.000000 3.000000
v 2.550000 0.500000 3.000000
v 3.000000 0.500000 2.550000
v 2.550000 0.000000 -3.000000
v 3.000000 0.000000 -2.550000
v 3.000000 0.500000 -2.550000
v 2.550000 0.500000 -3.000000
vt 0.925000 0.000000
vt 0.925000 1.000000
vt 0.075000 1.000000
vt 0.075000 0.000000
vt 0.925000 0.000000
vt 0.925000 1.000000
vt 0.075000 1.000000
vt 0.075000 0.000000
vt 1.000000 0.925000
vt 0.925000 1.000000
vt 0.075000 1.000000
vt 0.000000 0.925000
vt 0.000000 0.075000
vt 0.075000 0.000000
vt 0.925000 0.000000
vt 1.000000 0.075000
vt 0.075000 0.000000
vt 0.075000 1.000000
vt 0.925000 1.000000
vt 0.925000 0.000000
vt 0.075000 0.000000
vt 0.925000 0.000000
vt 0.000000 1.000000
vt 0.000000 0.000000
vt 0.000000 0.000000
vt 0.000000 1.000000
vt 1.000000 1.000000
vt 1.000000 0.000000
vt 1.000000 0.000000
vt 1.000000 1.000000
vt 0.000000 0.925000
vt 0.075000 1.000000
vt 0.925000 1.000000
vt 1.000000 0.925000
vt 1.000000 0.075000
vt 0.000000 0.075000
vn 0.0000 0.0000 1.0000
vn 1.0000 0.0000 0.0000
vn 0.0000 1.0000 0.0000
vn -1.0000 0.0000 0.0000
vn 0.0000 0.0000 -1.0000
vn -0.7071 0.0000 0.7071
vn -0.7071 0.0000 -0.7071
vn 0.7071 0.0000 -0.7071
vn 0.7071 0.0000 0.7071
vn 0.0000 -1.0000 0.0000
usemtl Material.001
s off
f 10/1/1 11/2/1 4/3/1 1/4/1
f 14/5/2 15/6/2 12/7/2 9/8/2
f 15/9/3 16/10/3 7/11/3 8/12/3 3/13/3 4/14/3 11/15/3 12/16/3
f 2/17/4 3/18/4 8/19/4 5/20/4
f 6/21/5 7/11/5 16/10/5 13/22/5
f 1/4/6 4/3/6 3/23/6 2/24/6
f 7/11/7 6/21/7 5/25/7 8/26/7
f 15/27/8 14/28/8 13/22/8 16/10/8
f 11/2/9 10/1/9 9/29/9 12/30/9
f 5/31/10 6/32/10 13/33/10 14/34/10 9/35/10 10/1/10 1/4/10 2/36/10
