# Blender v2.80 (sub 75) OBJ File: 'pad.blend'
# www.blender.org
mtllib pad.mtl
o Plane
v -3.000000 0.130000 2.610000
v -2.610000 0.000000 2.610000
v -2.610000 0.130000 3.000000
v 2.610000 0.130000 3.000000
v 2.610000 0.000000 2.610000
v 3.000000 0.130000 2.610000
v -3.000000 0.130000 -2.610000
v -2.610000 0.130000 -3.000000
v -2.610000 0.000000 -2.610000
v 3.000000 0.130000 -2.610000
v 2.610000 0.000000 -2.610000
v 2.610000 0.130000 -3.000000
v -3.000000 0.170000 2.610000
v -2.610000 0.170000 3.000000
v -2.610000 0.300000 2.610000
v 2.610000 0.170000 3.000000
v 3.000000 0.170000 2.610000
v 2.610000 0.300000 2.610000
v -3.000000 0.170000 -2.610000
v -2.610000 0.300000 -2.610000
v -2.610000 0.170000 -3.000000
v 3.000000 0.170000 -2.610000
v 2.610000 0.170000 -3.000000
v 2.610000 0.300000 -2.610000
vt 0.413000 0.498000
vt 0.587000 0.498000
vt 0.587000 0.502000
vt 0.413000 0.502000
vt 0.413000 0.413000
vt 0.587000 0.413000
vt 0.587000 0.587000
vt 0.413000 0.587000
vt 0.413000 0.498000
vt 0.587000 0.498000
vt 0.587000 0.502000
vt 0.413000 0.502000
vt 0.587000 0.498000
vt 0.413000 0.498000
vt 0.413000 0.502000
vt 0.587000 0.502000
vt 0.413000 0.413000
vt 0.413000 0.587000
vt 0.587000 0.587000
vt 0.587000 0.413000
vt 0.413000 0.498000
vt 0.413000 0.485000
vt 0.400000 0.498000
vt 0.587000 0.485000
vt 0.600000 0.498000
vt 0.587000 0.498000
vt 0.600000 0.498000
vt 0.587000 0.485000
vt 0.587000 0.485000
vt 0.600000 0.498000
vt 0.413000 0.502000
vt 0.400000 0.502000
vt 0.413000 0.515000
vt 0.600000 0.502000
vt 0.587000 0.515000
vt 0.587000 0.502000
vt 0.587000 0.515000
vt 0.600000 0.502000
vt 0.600000 0.502000
vt 0.587000 0.515000
vt 0.400000 0.413000
vt 0.400000 0.587000
vt 0.587000 0.400000
vt 0.413000 0.400000
vt 0.600000 0.587000
vt 0.600000 0.413000
vt 0.413000 0.600000
vt 0.587000 0.600000
vt 0.413000 0.515000
vt 0.413000 0.515000
vt 0.400000 0.502000
vt 0.400000 0.498000
vn 0.0000 0.0000 1.0000
vn 0.0000 1.0000 0.0000
vn 1.0000 0.0000 0.0000
vn 0.0000 0.0000 -1.0000
vn 0.0000 -1.0000 0.0000
vn -0.3015 -0.9045 0.3015
vn 0.3015 -0.9045 0.3015
vn -0.3015 -0.9045 -0.3015
vn 0.3015 -0.9045 -0.3015
vn -0.3015 0.9045 0.3015
vn 0.3015 0.9045 0.3015
vn -0.3015 0.9045 -0.3015
vn 0.3015 0.9045 -0.3015
vn -0.3162 -0.9487 0.0000
vn -0.0000 -0.9487 0.3162
vn 0.3162 -0.9487 -0.0000
vn 0.0000 -0.9487 -0.3162
vn -0.3162 0.9487 0.0000
vn 0.0000 0.9487 0.3162
vn 0.3162 0.9487 0.0000
vn -0.0000 0.9487 -0.3162
vn -0.7071 0.0000 -0.7071
vn 0.7071 0.0000 -0.7071
vn 0.7071 0.0000 0.7071
vn -0.7071 0.0000 0.7071
vn -1.0000 0.0000 0.0000
usemtl Material.001
s off
f 3/1/1 4/2/1 16/3/1 14/4/1
f 15/5/2 18/6/2 24/7/2 20/8/2
f 6/9/3 10/10/3 22/11/3 17/12/3
f 12/13/4 8/14/4 21/15/4 23/16/4
f 2/17/5 9/18/5 11/19/5 5/20/5
f 1/21/6 2/22/6 3/23/6
f 4/2/7 5/24/7 6/25/7
f 7/26/8 8/27/8 9/28/8
f 10/10/9 11/29/9 12/30/9
f 13/31/10 14/32/10 15/33/10
f 16/3/11 17/34/11 18/35/11
f 19/36/12 20/37/12 21/38/12
f 22/11/13 23/39/13 24/40/13
f 9/18/14 2/17/14 1/41/14 7/42/14
f 2/17/15 5/20/15 4/43/15 3/44/15
f 5/20/16 11/19/16 10/45/16 6/46/16
f 11/19/17 9/18/17 8/47/17 12/48/17
f 19/36/18 13/31/18 15/33/18 20/37/18
f 14/4/19 16/3/19 18/35/19 15/33/19
f 17/12/20 22/11/20 24/40/20 18/49/20
f 23/16/21 21/15/21 20/50/21 24/40/21
f 7/26/22 19/36/22 21/38/22 8/27/22
f 22/11/23 10/10/23 12/13/23 23/16/23
f 6/9/24 17/12/24 16/51/24 4/52/24
f 13/31/25 1/21/25 3/1/25 14/4/25
f 7/26/26 1/21/26 13/31/26 19/36/26
